<svg width="16" height="17" viewBox="0 0 16 17" fill="none" xmlns="http://www.w3.org/2000/svg">
    <path d="M5.18971 15.5699C3.76785 15.0348 2.5262 14.1087 1.60797 12.8983C0.689741 11.688 0.132322 10.2428 0 8.72931H3.44704C3.4339 11.121 4.03387 13.4761 5.18971 15.5699ZM11.1781 8.72931C11.0329 13.09 9.44345 16.0766 8.00798 16.0766C6.57171 16.0766 4.98304 13.09 4.83702 8.72931H11.1781ZM16 8.72931C15.8707 10.2448 15.3136 11.6924 14.3933 12.9035C13.4731 14.1146 12.2278 15.0393 10.8023 15.5699C11.9646 13.4783 12.5676 11.1221 12.553 8.72931H16ZM16 7.3473H12.553C12.5689 4.95352 11.9665 2.59805 10.8023 0.506683C12.2283 1.03649 13.4742 1.96097 14.3945 3.17221C15.3148 4.38346 15.8717 5.83149 16 7.3473ZM11.1781 7.3473H4.83702C4.98304 2.97866 6.57171 0 8.00798 0C9.44345 0 11.0249 2.97866 11.1781 7.3473ZM5.18971 0.545781C4.03267 2.63886 3.43261 4.99404 3.44704 7.3856H0C0.129679 5.87143 0.686104 4.42508 1.6047 3.21441C2.52329 2.00374 3.76638 1.0784 5.18971 0.545781Z" fill="#BCC2C1"/>
</svg>
