<svg width="20" height="20" viewBox="0 0 20 20" fill="none" xmlns="http://www.w3.org/2000/svg">
<path d="M10.7042 2.29212C10.3137 1.90159 9.68049 1.90159 9.28996 2.29212L2.28996 9.29211C1.89944 9.68264 1.89944 10.3158 2.28996 10.7063C2.68049 11.0969 3.31365 11.0969 3.70418 10.7063L3.99707 10.4134V16.9992C3.99707 17.5515 4.44479 17.9992 4.99707 17.9992H6.99707C7.54935 17.9992 7.99707 17.5515 7.99707 16.9992V14.9992C7.99707 14.4469 8.44479 13.9992 8.99707 13.9992H10.9971C11.5494 13.9992 11.9971 14.4469 11.9971 14.9992V16.9992C11.9971 17.5515 12.4448 17.9992 12.9971 17.9992H14.9971C15.5494 17.9992 15.9971 17.5515 15.9971 16.9992V10.4134L16.29 10.7063C16.6805 11.0969 17.3137 11.0969 17.7042 10.7063C18.0947 10.3158 18.0947 9.68264 17.7042 9.29211L10.7042 2.29212Z" fill="#BCC2C1"/>
</svg>
