<svg width="30" height="30" viewBox="0 0 30 30" fill="none" xmlns="http://www.w3.org/2000/svg">
    <path d="M3.75 4.6875C3.75 4.16973 4.16973 3.75 4.6875 3.75H6.5625C7.08027 3.75 7.5 4.16973 7.5 4.6875V6.5625C7.5 7.08027 7.08027 7.5 6.5625 7.5H4.6875C4.16973 7.5 3.75 7.08027 3.75 6.5625V4.6875Z" fill="#329A85"/>
    <path d="M10.3125 0C10.8303 0 11.25 0.419733 11.25 0.9375V10.3125C11.25 10.8303 10.8303 11.25 10.3125 11.25H0.9375C0.419733 11.25 0 10.8303 0 10.3125V0.9375C0 0.419733 0.419733 0 0.9375 0H10.3125ZM9.375 2.8125C9.375 2.29473 8.95527 1.875 8.4375 1.875H2.8125C2.29473 1.875 1.875 2.29473 1.875 2.8125V8.4375C1.875 8.95527 2.29473 9.375 2.8125 9.375H8.4375C8.95527 9.375 9.375 8.95527 9.375 8.4375V2.8125ZM7.5 23.4375C7.5 22.9197 7.08027 22.5 6.5625 22.5H4.6875C4.16973 22.5 3.75 22.9197 3.75 23.4375V25.3125C3.75 25.8303 4.16973 26.25 4.6875 26.25H6.5625C7.08027 26.25 7.5 25.8303 7.5 25.3125V23.4375Z" fill="#329A85"/>
    <path d="M10.3125 18.75C10.8303 18.75 11.25 19.1697 11.25 19.6875V29.0625C11.25 29.5803 10.8303 30 10.3125 30H0.9375C0.419733 30 0 29.5803 0 29.0625V19.6875C0 19.1697 0.419733 18.75 0.9375 18.75H10.3125ZM2.8125 20.625C2.29473 20.625 1.875 21.0447 1.875 21.5625V27.1875C1.875 27.7053 2.29473 28.125 2.8125 28.125H8.4375C8.95527 28.125 9.375 27.7053 9.375 27.1875V21.5625C9.375 21.0447 8.95527 20.625 8.4375 20.625H2.8125ZM22.5 4.6875C22.5 4.16973 22.9197 3.75 23.4375 3.75H25.3125C25.8303 3.75 26.25 4.16973 26.25 4.6875V6.5625C26.25 7.08027 25.8303 7.5 25.3125 7.5H23.4375C22.9197 7.5 22.5 7.08027 22.5 6.5625V4.6875Z" fill="#329A85"/>
    <path d="M19.6875 0C19.1697 0 18.75 0.419733 18.75 0.9375V10.3125C18.75 10.8303 19.1697 11.25 19.6875 11.25H29.0625C29.5803 11.25 30 10.8303 30 10.3125V0.9375C30 0.419733 29.5803 0 29.0625 0H19.6875ZM27.1875 1.875C27.7053 1.875 28.125 2.29473 28.125 2.8125V8.4375C28.125 8.95527 27.7053 9.375 27.1875 9.375H21.5625C21.0447 9.375 20.625 8.95527 20.625 8.4375V2.8125C20.625 2.29473 21.0447 1.875 21.5625 1.875H27.1875ZM14.0625 1.875C14.5803 1.875 15 1.45527 15 0.9375C15 0.419733 15.4197 0 15.9375 0C16.4553 0 16.875 0.419733 16.875 0.9375V2.8125C16.875 3.33027 16.4553 3.75 15.9375 3.75C15.4197 3.75 15 4.16973 15 4.6875V7.5H14.0625C13.5447 7.5 13.125 7.08027 13.125 6.5625V2.8125C13.125 2.29473 13.5447 1.875 14.0625 1.875ZM15 11.25V7.5H15.9375C16.4553 7.5 16.875 7.91973 16.875 8.4375V10.3125C16.875 10.8303 16.4553 11.25 15.9375 11.25H15ZM11.25 15V14.0625C11.25 13.5447 11.6697 13.125 12.1875 13.125C12.7053 13.125 13.125 12.7053 13.125 12.1875C13.125 11.6697 13.5447 11.25 14.0625 11.25H15V14.0625C15 14.5803 15.4197 15 15.9375 15C16.4553 15 16.875 14.5803 16.875 14.0625C16.875 13.5447 17.2947 13.125 17.8125 13.125H25.3125C25.8303 13.125 26.25 13.5447 26.25 14.0625C26.25 14.5803 25.8303 15 25.3125 15H19.6875C19.1697 15 18.75 15.4197 18.75 15.9375C18.75 16.4553 18.3303 16.875 17.8125 16.875H14.0625C13.5447 16.875 13.125 16.4553 13.125 15.9375C13.125 15.4197 12.7053 15 12.1875 15H11.25ZM11.25 15V15.9375C11.25 16.4553 10.8303 16.875 10.3125 16.875H4.6875C4.16973 16.875 3.75 16.4553 3.75 15.9375C3.75 15.4197 3.33027 15 2.8125 15C2.29473 15 1.875 15.4197 1.875 15.9375C1.875 16.4553 1.45527 16.875 0.9375 16.875C0.419733 16.875 0 16.4553 0 15.9375V14.0625C0 13.5447 0.419733 13.125 0.9375 13.125H4.6875C5.20527 13.125 5.625 13.5447 5.625 14.0625C5.625 14.5803 6.04473 15 6.5625 15H11.25ZM30 15.9375C30 16.4553 29.5803 16.875 29.0625 16.875H28.125V14.0625C28.125 13.5447 28.5447 13.125 29.0625 13.125C29.5803 13.125 30 13.5447 30 14.0625V15.9375ZM28.125 16.875H27.1875C26.6697 16.875 26.25 17.2947 26.25 17.8125V19.6875C26.25 20.2053 26.6697 20.625 27.1875 20.625H29.0625C29.5803 20.625 30 20.2053 30 19.6875C30 19.1697 29.5803 18.75 29.0625 18.75C28.5447 18.75 28.125 18.3303 28.125 17.8125V16.875ZM20.625 17.8125C20.625 17.2947 21.0447 16.875 21.5625 16.875H23.4375C23.9553 16.875 24.375 17.2947 24.375 17.8125C24.375 18.3303 23.9553 18.75 23.4375 18.75C22.9197 18.75 22.5 19.1697 22.5 19.6875V20.625H21.5625C21.0447 20.625 20.625 20.2053 20.625 19.6875V17.8125ZM24.375 22.5V21.5625C24.375 21.0447 23.9553 20.625 23.4375 20.625H22.5V22.5H21.5625C21.0447 22.5 20.625 22.9197 20.625 23.4375C20.625 23.9553 20.2053 24.375 19.6875 24.375H17.8125C17.2947 24.375 16.875 24.7947 16.875 25.3125C16.875 25.8303 17.2947 26.25 17.8125 26.25H21.5625C22.0803 26.25 22.5 25.8303 22.5 25.3125V22.5H24.375ZM24.375 22.5H29.0625C29.5803 22.5 30 22.9197 30 23.4375C30 23.9553 29.5803 24.375 29.0625 24.375H27.1875C26.6697 24.375 26.25 24.7947 26.25 25.3125C26.25 25.8303 25.8303 26.25 25.3125 26.25C24.7947 26.25 24.375 25.8303 24.375 25.3125V22.5ZM15.9375 20.625C16.4553 20.625 16.875 21.0447 16.875 21.5625C16.875 22.0803 17.2947 22.5 17.8125 22.5C18.3303 22.5 18.75 22.0803 18.75 21.5625V19.6875C18.75 19.1697 18.3303 18.75 17.8125 18.75H14.0625C13.5447 18.75 13.125 19.1697 13.125 19.6875C13.125 20.2053 13.5447 20.625 14.0625 20.625H15.9375Z" fill="#329A85"/>
    <path d="M13.125 23.4375C13.125 22.9197 13.5447 22.5 14.0625 22.5C14.5803 22.5 15 22.9197 15 23.4375V27.1875C15 27.7053 15.4197 28.125 15.9375 28.125H21.5625C22.0803 28.125 22.5 28.5447 22.5 29.0625C22.5 29.5803 22.0803 30 21.5625 30H14.0625C13.5447 30 13.125 29.5803 13.125 29.0625V23.4375ZM29.0625 26.25C29.5803 26.25 30 26.6697 30 27.1875V29.0625C30 29.5803 29.5803 30 29.0625 30H25.3125C24.7947 30 24.375 29.5803 24.375 29.0625C24.375 28.5447 24.7947 28.125 25.3125 28.125H27.1875C27.7053 28.125 28.125 27.7053 28.125 27.1875C28.125 26.6697 28.5447 26.25 29.0625 26.25Z" fill="#329A85"/>
</svg>
