<svg width="20" height="20" viewBox="0 0 20 20" fill="none" xmlns="http://www.w3.org/2000/svg">
<path fill-rule="evenodd" clip-rule="evenodd" d="M12.0015 6.9998C11.4492 6.9998 11.0015 6.55209 11.0015 5.9998C11.0015 5.44752 11.4492 4.9998 12.0015 4.9998H17.0015C17.5537 4.9998 18.0015 5.44752 18.0015 5.9998V10.9998C18.0015 11.5521 17.5537 11.9998 17.0015 11.9998C16.4492 11.9998 16.0015 11.5521 16.0015 10.9998V8.41402L11.7086 12.7069C11.318 13.0974 10.6849 13.0974 10.2944 12.7069L8.00146 10.414L3.70857 14.7069C3.31805 15.0974 2.68488 15.0974 2.29436 14.7069C1.90383 14.3164 1.90383 13.6832 2.29436 13.2927L7.29436 8.2927C7.68488 7.90217 8.31805 7.90217 8.70857 8.2927L11.0015 10.5856L14.5873 6.9998H12.0015Z" fill="#BCC2C1"/>
</svg>
